# xmcd CD database file
#
# Track frame offsets:
#	150
#	5049
#	18906
#	39210
#	54361
#	72518
#	86822
#	103906
#	119731
#	137768
#	153654
#
# Disc length: 2313 seconds
#
# Revision: 0
# Processed by: cddbd v1.5.2PL0 Copyright (c) Steve Scherf et al.
# Submitted via: CDex 1.51
#
DISCID=9709070b
DTITLE=Cyfer - Color
DYEAR=2009
DGENRE=Blues
TTITLE0=Intro
TTITLE1=Six Feet Under Water
TTITLE2=Square Almost Room
TTITLE3=Take Me
TTITLE4=Fried
TTITLE5=Sharp Edged Bone
TTITLE6=Time Stretch
TTITLE7=Say What You Feel
TTITLE8=Just For Those Days
TTITLE9=The Sign
TTITLE10=Outro
EXTD=YEAR: 2009
EXTT0=
EXTT1=
EXTT2=
EXTT3=
EXTT4=
EXTT5=
EXTT6=
EXTT7=
EXTT8=
EXTT9=
EXTT10=
PLAYORDER=
